<?xml version="1.0" encoding="UTF-8" standalone="no"?>
<!-- Created with Inkscape (http://www.inkscape.org/) -->

<svg
   width="751mm"
   height="700mm"
   viewBox="0 0 751 700"
   version="1.1"
   id="svg7851"
   xml:space="preserve"
   inkscape:version="1.2.2 (732a01da63, 2022-12-09)"
   sodipodi:docname="1.svg"
   xmlns:inkscape="http://www.inkscape.org/namespaces/inkscape"
   xmlns:sodipodi="http://sodipodi.sourceforge.net/DTD/sodipodi-0.dtd"
   xmlns="http://www.w3.org/2000/svg"
   xmlns:svg="http://www.w3.org/2000/svg"><sodipodi:namedview
     id="namedview7853"
     pagecolor="#ffffff"
     bordercolor="#000000"
     borderopacity="0.25"
     inkscape:showpageshadow="2"
     inkscape:pageopacity="0.0"
     inkscape:pagecheckerboard="0"
     inkscape:deskcolor="#d1d1d1"
     inkscape:document-units="mm"
     showgrid="false"
     inkscape:zoom="0.7071068"
     inkscape:cx="1446.7404"
     inkscape:cy="811.75856"
     inkscape:window-width="3747"
     inkscape:window-height="2126"
     inkscape:window-x="-11"
     inkscape:window-y="-11"
     inkscape:window-maximized="1"
     inkscape:current-layer="layer1" /><defs
     id="defs7848"><rect
       x="361.33156"
       y="599.62653"
       width="106.06602"
       height="94.045204"
       id="rect3147" /><rect
       x="421.43563"
       y="682.35803"
       width="92.630986"
       height="73.539103"
       id="rect3141" /><rect
       x="902.26823"
       y="652.65954"
       width="245.36605"
       height="101.82337"
       id="rect3135" /><rect
       x="1501.8948"
       y="676.70117"
       width="115.2584"
       height="98.994947"
       id="rect3129" /><rect
       x="1697.0562"
       y="674.57985"
       width="111.01576"
       height="85.559918"
       id="rect3123" /><rect
       x="2551.2412"
       y="2118.4919"
       width="126.57211"
       height="132.22896"
       id="rect3117" /><rect
       x="1958.6857"
       y="1376.0298"
       width="449.7199"
       height="176.77669"
       id="rect3111" /><rect
       x="2013.133"
       y="789.83825"
       width="166.17009"
       height="106.06601"
       id="rect3105" /><rect
       x="2269.8127"
       y="883.17635"
       width="183.14065"
       height="70.003569"
       id="rect3099" /><rect
       x="2218.901"
       y="726.90575"
       width="264.45793"
       height="96.873626"
       id="rect3093" /><rect
       x="2477.7021"
       y="538.81535"
       width="104.6518"
       height="57.275648"
       id="rect3087" /><rect
       x="2320.7244"
       y="627.9108"
       width="113.84419"
       height="55.861434"
       id="rect3081" /><rect
       x="2322.8457"
       y="471.64021"
       width="94.045199"
       height="52.3259"
       id="rect3075" /><rect
       x="2228.0934"
       y="509.11687"
       width="98.28784"
       height="130.81475"
       id="rect3069" /><rect
       x="2251.4279"
       y="357.79602"
       width="107.48023"
       height="53.740114"
       id="rect3063" /><rect
       x="2303.7538"
       y="195.16147"
       width="192.33304"
       height="107.48023"
       id="rect3057" /><rect
       x="2021.6182"
       y="347.89653"
       width="199.40411"
       height="89.802559"
       id="rect3051" /><rect
       x="2031.5177"
       y="173.94826"
       width="162.63456"
       height="160.51324"
       id="rect3045" /><rect
       x="1847.67"
       y="342.94678"
       width="159.80613"
       height="113.13708"
       id="rect3039" /><rect
       x="1851.2055"
       y="173.94826"
       width="154.85638"
       height="156.27059"
       id="rect3033" /><rect
       x="1716.8552"
       y="294.15641"
       width="78.488851"
       height="48.790367"
       id="rect3027" /><rect
       x="1523.8151"
       y="316.78383"
       width="113.84419"
       height="57.275648"
       id="rect3021" /><rect
       x="1324.411"
       y="310.41987"
       width="120.20815"
       height="67.175142"
       id="rect3015" /><rect
       x="1126.4211"
       y="296.98484"
       width="110.30865"
       height="69.296463"
       id="rect3009" /><rect
       x="945.49998"
       y="287.49999"
       width="122"
       height="68.499998"
       id="rect3003" /><rect
       x="774.99998"
       y="291.24999"
       width="91.499998"
       height="48.999999"
       id="rect2997" /><rect
       x="603.49998"
       y="289.99999"
       width="99.249997"
       height="60.999998"
       id="rect2991" /><rect
       x="433.99999"
       y="293.49999"
       width="115"
       height="77.999998"
       id="rect348" /><rect
       x="830.85047"
       y="697.20729"
       width="213.54625"
       height="67.882251"
       id="rect19107" /><rect
       x="742"
       y="624"
       width="298"
       height="124"
       id="rect19048" /></defs><g
     inkscape:label="Слой 1"
     inkscape:groupmode="layer"
     id="layer1"><path
       style="fill:#727271;fill-opacity:1;stroke:#000000;stroke-width:0.264583;stroke-opacity:0.962069"
       d="M 45.874003,35.203745 V 154.65986 h 43.12394 v 79.04496 H 482.07122 v 251.63425 h -8.79316 v 26.49739 h 8.39589 v 104.24583 h 34.26354 v -6.61459 h 124.08958 v 6.61459 h 78.44896 V 550.73021 H 669.92499 V 263.78958 h 18.52083 V 45.111459 h -7.14375 V 115.8875 H 611.0552 v -1.85208 h -3.04271 v 1.71979 h -22.09271 v -6.21771 h -6.35 v 5.82083 l -1.79416,0.0508 0,2.50287 h -8.52459 l 0,2.07654 h 8.46667 v 1.45521 h 2.11667 v 6.48229 h 5.82083 v -6.2177 h 23.68021 v 5.82083 h 1.5875 v -5.68854 h 26.85521 v 16.40416 h -26.85521 v -2.38125 h -2.11667 v 4.23334 h 51.32917 v -2.11667 h -8.46667 v -16.13959 h 28.31042 v 57.94376 h -28.17813 v -15.21355 h 8.73125 v -2.11666 h -51.99062 v 3.70416 h 1.98437 v -1.45521 h 26.59063 v 14.55209 H 626.9302 v 6.87917 h 53.975 v 41.20058 l -4.28295,-0.0496 -0.006,2.45384 4.15714,0.0248 v 26.74954 h -17.33021 v 303.34479 h 6.61458 v -5.29166 h 44.05313 v 57.15 h -42.8625 v -2.29028 h -1.10795 v -27.4092 h -5.96966 v 21.51394 H 488.32161 V 262.86354 h 53.6112 v -6.48229 h -53.975 v -111.125 h -8.4336 v 2.24896 h -11.87317 v 3.30729 h 13.85755 v 74.91016 h -44.9461 v -68.69245 h 7.67292 v -6.35 h 10.84792 v -3.04271 h -37.96771 v 2.91042 h 9.92187 v 6.74687 h 7.54063 v 67.86563 H 387.61458 V 157.1625 h 6.74687 v -6.48229 h 10.71563 v -3.175 h -36.11563 v 2.77812 h 9.78959 v 6.87917 h 6.61458 V 225.425 H 96.969793 143.66875 v -68.39479 h 7.80521 v -7.01146 h 9.65729 v -2.64583 h -35.05729 v 2.51354 h 13.09687 v 7.27604 h 2.38125 V 225.425 H 96.969793 V 191.69063 H 110.33125 V 150.01875 H 107.95 v 39.6875 H 96.705213 v -39.42292 h 16.933327 v -3.04271 H 99.351043 v -2.38125 h -9.525 v 3.43959 H 51.858333 V 45.111459 h 38.62917 v 79.904161 h 8.59896 v -1.5875 h 12.435407 v -3.57187 H 98.821873 V 67.601042 h 4.101037 V 44.913021 h 37.83542 v 66.873439 h -3.83645 v 8.33437 h -13.62605 v 3.57188 h 38.2323 v -3.43959 h -10.98021 v -8.33437 h -7.01146 V 44.979167 h 46.30208 V 111.78646 H 184.15 v 8.46666 h -10.71562 v 3.70417 h 36.64479 v -3.57187 h -9.78959 v -9.39271 h -6.87916 V 44.979167 h 44.18541 v 66.675003 h -6.21771 v 8.59895 h -9.525 v 3.57188 h 36.90938 v -3.83646 h -10.05417 v -7.80521 H 241.3 V 45.376042 h 45.64062 v 66.145828 h -6.74687 v 8.59896 h -9.26042 v 3.70417 h 36.38021 v -4.89479 h -11.37708 v -7.14375 h -5.95313 V 45.111459 h 46.30208 v 66.939581 h -6.74687 v 6.81302 h -9.92188 v 4.69636 h 37.70313 v -4.63021 h -11.1125 v -7.01146 h -5.55625 V 45.243751 h 44.3177 v 66.939579 h -5.95312 v 6.87917 h -8.86354 v 5.15937 h 33.20521 v -4.7625 h -11.1125 v -5.55625 -1.67018 h -3.32383 V 45.508334 h 41.48997 V 111.8526 h -3.34036 v 7.50756 h -11.74089 v 4.56406 h 40.38203 v -11.74089 h -2.18281 v 7.54063 H 433.51979 V 97.598177 h 19.71145 v 5.291663 h 2.74506 v -8.069788 h -4.3987 v -3.671094 h -2.31511 v 3.902605 H 433.91666 V 70.776042 h 15.5112 v 12.435417 h 1.91823 V 56.68698 h -2.05052 V 68.923958 H 434.01588 V 45.276824 h 15.21354 v 3.40651 h 2.4474 v -3.472656 h 29.73255 V 95.01849 h -14.51901 v 2.116666 h 14.58515 v 22.572264 h -11.60859 v -9.54154 h -2.11667 v 14.07253 h 11.59206 v 1.42214 h 8.21862 v -4.38217 h 1.91823 v -4.99401 h -1.48828 V 91.678125 h 3.5388 v -1.967838 h 12.8819 v -2.43086 h -12.84883 v -1.653646 h -3.62148 V 45.227214 h 44.06966 v 40.299349 h -4.18372 V 87.3125 h -11.95586 v 2.480469 h 11.36054 v 1.934765 h 4.86172 v 20.696856 h -1.96397 v 3.5313 h -2.1749 v 6.05699 h 9.7052 v -2.03458 h 10.31328 v -2.01121 h -10.4302 v -2.05797 h -0.95882 v -3.41437 h -2.40877 V 92.148857 h 4.34981 v -1.590254 h 9.00363 V 87.424868 H 536.56081 V 45.446847 h 44.73758 v 41.884477 h -11.64627 v 3.367596 h 8.32543 v 1.473323 h 1.3798 v 5.402185 h 6.15053 v -7.577091 h 36.71615 l 9.28428,9.284275 v 16.607958 h 1.78223 V 98.860663 L 622.78775,88.357867 H 585.76513 V 45.493621 h 95.50877 v -0.140317 h 0.28061 l -0.18708,0.04677"
       id="path8603"
       sodipodi:nodetypes="cccccccccccccccccccccccccccccccccccccccccccccccccccccccccccccccccccccccccccccccccccccccccccccccccccccccccccccccccccccccccccccccccccccccccccccccccccccccccccccccccccccccccccccccccccccccccccccccccccccccccccccccccccccccccccccccccccccccccccccccccccccccccccccccccccccccccccccccccccccccccccccccccccccccccccccccccccccccccccccccccccccccccccccccccccccccccc" /><path
       style="fill:#727271;fill-opacity:1;stroke:#000000;stroke-width:0.264583;stroke-opacity:0"
       d="M 45.312743,35.390832 686.13821,45.72748 h 2.10473 1.26286 v -9.892312 z"
       id="path16590" /><path
       style="fill:#727271;fill-opacity:1;stroke:#000000;stroke-width:0.264583;stroke-opacity:1"
       d="m 660.61909,45.504199 h 20.69952"
       id="path16659" /><path
       style="fill:#727271;fill-opacity:1;stroke:#000000;stroke-width:0.295813;stroke-opacity:1"
       d="m 681.28851,45.370843 v 0.409256"
       id="path17257" /><path
       style="fill:#727271;fill-opacity:0;stroke:#000000;stroke-width:0.264583;stroke-opacity:1"
       d="M 45.780463,35.250515 H 689.2065 V 45.57448 h -0.79375 v 1.455208"
       id="path17259" /><path
       style="fill:#727271;fill-opacity:1;stroke:#737373;stroke-width:0.264583;stroke-opacity:1"
       d="M 689.07898,35.513609 388.97057,35.753316"
       id="path17693"
       sodipodi:nodetypes="cc" /><path
       style="fill:#727271;fill-opacity:1;stroke:#737373;stroke-width:0.264693;stroke-opacity:1"
       d="M 557.79127,35.774562 H 689.07745"
       id="path18073" /><path
       style="fill:#727271;fill-opacity:1;stroke:#000000;stroke-width:0.264583;stroke-opacity:1"
       d="m 585.53127,127.85941 v 48.2221 h -5.79975 v 4.02241 h -2.15154 v 1.87089 h -7.76417 v 2.19829 h 7.99804 v 2.38538 h 4.11596 v 4.44335 h 2.71278 v -4.72399 h 31.94539 v -6.31424 h -6.08039 v -5.47234 h -1.54347 v 5.23848 h -22.82481 v -3.695 h -0.98221 v 0.0935"
       id="path18801" /><path
       style="fill:#727271;fill-opacity:1;stroke:#000000;stroke-width:0.264583;stroke-opacity:1"
       d="m 547.6692,184.31341 h -8.95688 v 2.22168 h -1.14591 v 3.22728 h -7.74081 v -3.64823 h -2.92324 v -1.63702 h -37.27741 v 1.52009 h -1.63703 v -6.01022 h 50.44379 v 2.22168 h 9.23747 z"
       id="path18911"
       sodipodi:nodetypes="ccccccccccccccccc" /><path
       style="fill:#727271;fill-opacity:1;stroke:#000000;stroke-width:0.264583;stroke-opacity:1"
       d="m 563.64189,256.4361 v 6.45455 h 85.35922 v -6.22069 h -64.35852 v -26.98754 h 65.90199 v -2.05798 h -65.80844 v -24.60216 h -3.69501 v 53.36704 z"
       id="path18976" /><path
       style="fill:#727271;fill-opacity:1;stroke:#000000;stroke-width:0.264583;stroke-opacity:1"
       d="m 659.0571,227.34381 v 2.38538 h 14.03167 v -2.40877 z"
       id="path18978" /><path
       style="fill:#727271;fill-opacity:1;stroke:#000000;stroke-width:0.264583;stroke-opacity:1"
       d="m 173.50052,147.17448 v 3.30729 h 6.81302 v 6.81302 h 19.11615 v -6.74687 h 33.66823 v 6.74687 h 15.41198 v -6.94531 h 33.40364 v 6.68073 h 18.12396 v -6.54844 h 21.49739 v 6.15156 h 11.31094 V 158.75 h 12.96458 v -8.40052 h 10.31875 v -2.77813 z"
       id="path18980" /><path
       style="fill:#727271;fill-opacity:1;stroke:#000000;stroke-width:0.264583;stroke-opacity:1"
       d="m 392.344,112.18333 h 8.10287 v -5.22552 h 2.61276 v 6.7138 h -10.7487 v -1.32291 z"
       id="path18982" /><path
       style="fill:#727271;fill-opacity:1;stroke:#000000;stroke-width:0.264583;stroke-opacity:1"
       d="m 388.94718,95.977604 h 11.83042 v -1.389062 h 1.81901 v 4.233333 h -1.78594 v -0.992187 h -11.8655 z"
       id="path18986"
       sodipodi:nodetypes="ccccccccc" /><path
       style="fill:#727271;fill-opacity:1;stroke:#000000;stroke-width:0.265;stroke-dasharray:none;stroke-opacity:1"
       d="m 388.97123,82.981512 h 11.88013 v 3.34421 h 1.73058 V 69.97885 h -1.75396 v 7.88111 h -11.80997 -0.0409 z"
       id="path18988" /><path
       style="fill:#727271;fill-opacity:1;stroke:#000000;stroke-width:0.264999;stroke-dasharray:none;stroke-opacity:1"
       d="m 388.90692,58.496283 h 24.64309 v 2.081361 H 403.1432 v 1.426551 h -2.47892 v -1.286234 h -11.7632 z"
       id="path18990"
       sodipodi:nodetypes="ccccccccc" /><path
       style="fill:#727271;fill-opacity:1;stroke:#000000;stroke-width:0.264999;stroke-dasharray:none;stroke-opacity:1"
       d="m 430.39439,58.853256 h -9.19427 v 1.835547 h 9.19427 z"
       id="path18992" /><circle
       id="path19101"
       style="fill:#727271;stroke:#000000;stroke-width:0.264583"
       cx="240.40894"
       cy="185.59196"
       r="0.02495927" /><path
       style="fill:#727271;stroke:#000000;stroke-width:0.264999;fill-opacity:0;stroke-opacity:0"
       d="m 102.95599,44.185416 h 37.70312 v 67.601044 h -3.80338 v 8.26823 L 98.921093,119.62474 V 67.733332 h 4.200257 V 44.185416 h 37.57084"
       id="B101"
       inkscape:label="B101" /><path
       style="fill:#727271;fill-opacity:0;stroke:#000000;stroke-width:0.264999;stroke-opacity:0"
       d="m 143.53646,45.045312 v 67.005728 h 7.0776 v 8.06979 H 184.15 v -8.46666 h 5.68854 V 45.376041 Z"
       id="B102"
       inkscape:label="B102" /><path
       style="fill:#727271;fill-opacity:0;stroke:#000000;stroke-width:0.264999;stroke-opacity:0"
       d="m 193.54271,44.979166 v 65.881254 h 6.87916 v 9.32656 h 30.89011 v -8.86354 h 6.2177 V 45.111458 Z"
       id="B103"
       inkscape:label="B103" /><path
       style="fill:#727271;fill-opacity:0;stroke:#000000;stroke-width:0.264999;stroke-opacity:0"
       d="m 241.49843,45.309895 v 66.807295 h 7.40834 v 7.60677 h 31.15468 v -8.46667 h 6.74688 V 45.70677 l -0.054,-0.201681 z"
       id="B104"
       inkscape:label="B104" /><path
       style="fill:#727271;fill-opacity:0;stroke:#000000;stroke-width:0.264999;stroke-opacity:0"
       d="m 289.91718,45.309895 v 66.278125 h 6.15157 v 7.14375 h 33.27135 v -6.87917 h 6.61458 V 44.979166 h -45.77291 z"
       id="B105"
       inkscape:label="b105" /><path
       style="fill:#7f7f7f;fill-opacity:0;stroke:#000000;stroke-width:0.264999;stroke-opacity:0"
       d="m 340.87556,45.602863 h 43.96581 v 66.369707 h -6.08036 v 6.96905 h -32.31957 v -7.20291 h -5.61266 z"
       id="b106"
       inkscape:label="b106" /><path
       style="fill:#7f7f7f;fill-opacity:0;stroke:#000000;stroke-width:0.264999;stroke-opacity:0"
       d="m 389.20208,45.640624 v 12.832292 h 24.20937 v 2.778125 h -9.65729 v 0.79375 h -3.43958 v -1.322917 h -11.24479 v 16.933333 h 11.64166 v -8.069791 l 1.95067,0.522679 v 16.675237 h -2.08296 l 0.90422,-3.374541 h -12.01672 v 12.370374 h 11.50938 V 94.58854 h 2.24895 v 4.497917 h -2.51354 V 97.76354 h -11.24479 v 14.15521 h 11.1125 v -5.15938 h 2.51354 v 7.01146 h -10.58333 v 5.55625 h 34.13125 v -7.54062 l 3.93441,-1.05422 V 60.986458 h -9.62295 l 0.65497,-2.444385 h 8.60544 V 45.111458 Z"
       id="wc2"
       inkscape:label="wc" /><path
       style="fill:#7f7f7f;fill-opacity:0;stroke:#000000;stroke-width:0.264999;stroke-opacity:0"
       d="m 434.31354,45.111458 v 23.944791 h 15.21354 V 56.488541 h 2.38125 v 26.590625 h -3.04271 v -11.90625 h -14.68438 v 23.944791 h 15.08125 v -4.101041 h 2.91042 v 3.042708 l -0.24037,0.89708 h 4.4737 v 7.834166 h -3.0427 v -4.894788 h -19.1823 v 21.563538 h 19.31459 v -7.27604 l 2.56781,-0.68804 v 12.59429 h 11.98427 v -14.15521 h 1.71979 v 10.05417 h 11.77396 V 98.160415 l -0.53327,-0.923668 H 466.5927 v -2.780498 h 15.08125 V 45.640624 h -29.89791 v 3.307292 h -2.51355 v -3.571875 z"
       id="path2431"
       inkscape:label="wc2" /><path
       style="fill:#7f7f7f;fill-opacity:0;stroke:#000000;stroke-width:0.264999;stroke-opacity:0"
       d="m 96.572915,150.41562 v 39.15834 h 11.773955 v -39.15834 z"
       id="b138"
       inkscape:label="b138" /><path
       style="fill:#7f7f7f;fill-opacity:0;stroke:#000000;stroke-width:0.264999;stroke-opacity:0"
       d="m 110.59583,150.41562 h 28.70729 v 6.74688 h 2.64584 v 67.99791 H 97.366665 v -33.46979 h 13.626045 v -40.21666 z"
       id="b137"
       inkscape:label="b137" /><path
       style="fill:#7f7f7f;fill-opacity:0;stroke:#000000;stroke-width:0.264999;stroke-opacity:0"
       d="m 144.06562,157.1625 v 68.2625 h 240.77083 v -67.46875 h -6.35 v -7.40834 H 346.075 v 8.73125 h -12.96459 v -2.51354 h -12.03854 v -6.08541 h -20.76979 v 6.74687 h -18.91771 v -6.61458 h -32.67604 v 7.14375 h -16.00729 v -7.40834 h -33.20521 v 6.61459 h -19.71146 v -6.87917 h -28.04583 v 7.14375 z"
       id="b136"
       inkscape:label="b136" /><path
       style="fill:#7f7f7f;fill-opacity:0;stroke:#000000;stroke-width:0.264999;stroke-opacity:0"
       d="m 387.74687,157.29479 v 67.20417 h 46.43437 v -67.46875 h -7.27604 v -5.95313 h -32.54375 v 6.48229 z"
       id="b135"
       inkscape:label="b135" /><path
       style="fill:#7f7f7f;fill-opacity:0;stroke:#000000;stroke-width:0.264999;stroke-opacity:0"
       d="M 436.69479,157.29479 V 225.425 h 44.71458 v -74.21563 h -37.30625 v 5.95313 z"
       id="b134"
       inkscape:label="b134" /><path
       style="fill:#7f7f7f;fill-opacity:0;stroke:#000000;stroke-width:0.264999;stroke-opacity:0"
       d="M 487.92725,262.85958 V 604.10931 H 664.1703 v -339.75302 -0.93545 l -0.25929,-0.96771 z"
       id="b131"
       inkscape:label="b131" /><path
       style="fill:#7f7f7f;fill-opacity:0;stroke:#000000;stroke-width:0.264999;stroke-opacity:0"
       d="m 669.77743,554.90498 v 54.25572 h 1.68379 v 2.24507 h 42.65623 V 554.7179 Z"
       id="b130"
       inkscape:label="b130" /><path
       style="fill:#7f7f7f;fill-opacity:0;stroke:#000000;stroke-width:0.264999;stroke-opacity:0"
       d="m 586.33589,122.54308 v 56.87495 h 23.0119 v -57.62331 z"
       id="b125"
       inkscape:label="b125" /><path
       style="fill:#7f7f7f;fill-opacity:0;stroke:#000000;stroke-width:0.264999;stroke-opacity:0"
       d="m 610.84449,121.79472 v 16.27671 h 26.75368 v -16.08962 z"
       id="b124"
       inkscape:label="b124" /><path
       style="fill:#7f7f7f;fill-opacity:0;stroke:#000000;stroke-width:0.264999;stroke-opacity:0"
       d="m 651.81691,121.60763 v 16.65089 h 9.35445 l -0.72665,2.71189 h -5.63439 v 21.42255 h 5.98684 v 2.80633 h -9.7286 v 14.03165 h 28.62456 v -57.62331 h -27.31495 l -0.25892,0.96633 z"
       id="b126"
       inkscape:label="b126" /><path
       style="fill:#7f7f7f;fill-opacity:0;stroke:#000000;stroke-width:0.264999;stroke-opacity:0"
       d="M 610.75096,179.60512 V 165.0122 h 26.09887 v 14.31229 z"
       id="b127"
       inkscape:label="b127"><title
         id="title2833">b12</title></path><path
       style="fill:#7f7f7f;fill-opacity:0;stroke:#000000;stroke-width:0.264999;stroke-opacity:0"
       d="M 534.32524,92.234712 V 112.2532 h 2.52569 v 3.18051 h 1.12252 v 2.80633 h 31.15027 v -1.30962 h 8.69963 v -1.59026 h 1.59025 V 92.141168 h -1.59025 V 90.64446 H 539.096 l -0.58299,0.336579 v 1.347219 h -4.74906 z"
       id="b121"
       inkscape:label="b121" /><path
       style="fill:#7f7f7f;fill-opacity:0;stroke:#000000;stroke-width:0.264999;stroke-opacity:0"
       d="m 585.68108,90.363827 v 25.350513 h 22.35708 v -1.96443 h 3.18053 v 1.96443 h 20.39265 V 99.250538 l -9.26089,-9.26089 z"
       id="b123"
       inkscape:label="b123" /><path
       style="fill:#7f7f7f;fill-opacity:0;stroke:#000000;stroke-width:0.264999;stroke-opacity:0"
       d="m 585.96169,45.462547 v 42.936847 h 36.95002 l 10.43019,10.430195 v 17.071841 h 48.4092 V 45.649633 Z"
       id="b122"
       inkscape:label="b122" /><path
       style="fill:#7f7f7f;fill-opacity:0;stroke:#000000;stroke-width:0.264999;stroke-opacity:1"
       d="M 52.618687,60.195779 H 74.2742 v 44.573871 l -0.01086,0.46772 -0.134152,0.71294 -0.258915,0.39922 -0.470559,0.31605 -0.481907,0.11528 H 70.81306 l -0.674672,-0.069 -0.407249,-0.1181 -0.508333,-0.38788 -0.269772,-0.54521 -0.104404,-0.69356 V 60.336096 74.04034 H 52.47837 v 3.414369 h 16.276715 v 4.817533 H 52.47837 V 77.407936 H 68.755086 V 82.27224 H 52.47837 v 4.770762 h 16.323488 v 4.630444 H 52.47837 v 4.72399 h 16.417031 v 4.864304 H 52.47837 v -4.864304 h 16.370261"
       id="path3651"
       sodipodi:nodetypes="ccccccccccccccccccccccccccccccccccc" /><path
       style="fill:#7f7f7f;fill-opacity:0;stroke:#000000;stroke-width:0.264999;stroke-opacity:1"
       d="m 52.4316,87.136546 v 5.238482"
       id="path3815" /><path
       style="fill:#7f7f7f;fill-opacity:0;stroke:#000000;stroke-width:0.264999;stroke-opacity:1"
       d="M 74.320973,63.516602 H 90.550914 V 67.58578 H 74.22743 90.504144 v 4.256267 H 74.320973 90.550914 v 4.022407 H 74.22743 90.550914 v 4.115951 H 74.22743 90.550914 v 4.162722 H 74.22743 90.504144 v 4.022407 H 74.320973 90.550914 v 3.695002 H 74.2742 90.410598 v 4.11595 H 73.853251 90.317054 v 4.303034 H 74.22743 90.457371 v 4.11596 H 74.087113"
       id="path3817" /><path
       style="fill:#7f7f7f;fill-opacity:0;stroke:#000000;stroke-width:0.264999;stroke-opacity:1"
       d="m 70.298566,60.476412 v 44.268198 l 0.07702,0.27156 0.195097,0.19899 c 0,0 0.129318,0.0982 0.351585,0.17432 0.144969,0.0497 0.369792,0.0899 0.485128,0.0875 0.152352,-0.003 0.330751,-0.0107 0.492729,-0.0653 0.116859,-0.0394 0.306064,-0.22501 0.306064,-0.22501 l 0.160769,-0.25627 0.03635,-0.30098 V 63.797235 h -2.057974 v -2.432153 h 2.104747 v -0.88867 7.951269"
       id="path3821"
       sodipodi:nodetypes="ccccsssccccccccc" /><path
       style="fill:#7f7f7f;fill-opacity:0;stroke:#000000;stroke-width:0.264999;stroke-opacity:1"
       d="M 52.4316,60.149006 V 101.21497"
       id="path3823" /><path
       style="fill:#7f7f7f;fill-opacity:0;stroke:#000000;stroke-width:0.264999;stroke-opacity:1"
       d="m 615.28853,140.0638 v 22.29115"
       id="path3888" /><path
       style="fill:#7f7f7f;fill-opacity:0;stroke:#000000;stroke-width:0.264999;stroke-opacity:1"
       d="m 619.45572,139.99765 v 22.39037"
       id="path3890" /><path
       style="fill:#7f7f7f;fill-opacity:0;stroke:#000000;stroke-width:0.264999;stroke-opacity:1"
       d="m 623.32525,140.09687 v 22.29115"
       id="path3892" /><path
       style="fill:#7f7f7f;fill-opacity:0;stroke:#000000;stroke-width:0.264999;stroke-opacity:1"
       d="m 627.294,140.03073 v 22.39036"
       id="path3894" /><path
       style="fill:#7f7f7f;fill-opacity:0;stroke:#000000;stroke-width:0.264999;stroke-opacity:1"
       d="m 631.22968,140.19609 v 22.29115"
       id="path3896" /><path
       style="fill:#7f7f7f;fill-opacity:0;stroke:#000000;stroke-width:0.264999;stroke-opacity:1"
       d="m 635.5953,140.03073 v 22.39036"
       id="path3898" /><path
       style="fill:#7f7f7f;fill-opacity:0;stroke:#000000;stroke-width:0.264999;stroke-opacity:1"
       d="m 639.46484,140.19609 v 22.25807"
       id="path3900" /><path
       style="fill:#7f7f7f;fill-opacity:0;stroke:#000000;stroke-width:0.264999;stroke-opacity:1"
       d="m 643.169,140.03073 v 22.52265"
       id="path3902" /><path
       style="fill:#7f7f7f;fill-opacity:0;stroke:#000000;stroke-width:0.264999;stroke-opacity:1"
       d="m 647.13775,140.09687 v 22.35729"
       id="path3904" /><path
       style="fill:#7f7f7f;fill-opacity:0;stroke:#000000;stroke-width:0.264999;stroke-opacity:1"
       d="m 651.07343,140.09687 v 22.29115"
       id="path3906" /><path
       style="fill:#7f7f7f;fill-opacity:0;stroke:#000000;stroke-width:0.264999;stroke-opacity:1"
       d="m 654.97603,140.03073 0.0331,0.46302 v 21.89427"
       id="path3908" /><text
       xml:space="preserve"
       transform="matrix(0.26458333,0,0,0.26458333,-5.9531248,-1.7197916)"
       id="text346"
       style="font-size:34.6667px;white-space:pre;shape-inside:url(#rect348);fill:#000000;fill-opacity:1;stroke:#000000;stroke-width:1.00157;stroke-opacity:0.991643"><tspan
         x="434"
         y="325.12748"
         id="tspan3835"><tspan
           style="stroke-opacity:0"
           id="tspan3833">B101</tspan></tspan></text><text
       xml:space="preserve"
       transform="matrix(0.26458333,0,0,0.26458333,-3.5546846,0)"
       id="text2989"
       style="font-size:34.6667px;white-space:pre;shape-inside:url(#rect2991);fill:#000000;fill-opacity:1;stroke:#000000;stroke-width:1.00157;stroke-opacity:0"><tspan
         x="603.5"
         y="321.62748"
         id="tspan3837">B102</tspan></text><text
       xml:space="preserve"
       transform="scale(0.26458333)"
       id="text2995"
       style="font-size:34.6667px;white-space:pre;shape-inside:url(#rect2997);fill:#000000;fill-opacity:1;stroke:#000000;stroke-width:1.00157;stroke-opacity:0"><tspan
         x="775"
         y="322.87748"
         id="tspan3839">B103</tspan></text><text
       xml:space="preserve"
       transform="matrix(0.26458333,0,0,0.26458333,2.80633,0.18708866)"
       id="text3001"
       style="font-size:34.6667px;white-space:pre;shape-inside:url(#rect3003);fill:#000000;fill-opacity:1;stroke:#000000;stroke-width:1.00157;stroke-opacity:0"><tspan
         x="945.5"
         y="319.12748"
         id="tspan3841">B104</tspan></text><text
       xml:space="preserve"
       transform="matrix(0.26458333,0,0,0.26458333,3.1805073,-2.0579753)"
       id="text3007"
       style="font-size:34.6667px;white-space:pre;shape-inside:url(#rect3009);fill:#000000;fill-opacity:1;stroke:#000000;stroke-width:1.00157;stroke-opacity:0"><tspan
         x="1126.4219"
         y="328.61185"
         id="tspan3843">B105</tspan></text><text
       xml:space="preserve"
       transform="matrix(0.26458333,0,0,0.26458333,1.8708866,-5.4255713)"
       id="text3013"
       style="font-size:34.6667px;white-space:pre;shape-inside:url(#rect3015);fill:#000000;fill-opacity:1;stroke:#000000;stroke-width:1.00157;stroke-opacity:0"><tspan
         x="1324.4102"
         y="342.0474"
         id="tspan3845">B106</tspan></text><text
       xml:space="preserve"
       transform="scale(0.26458333)"
       id="text3019"
       style="font-size:34.6667px;white-space:pre;shape-inside:url(#rect3021);fill:#000000;fill-opacity:1;stroke:#000000;stroke-width:1.00157;stroke-opacity:0"><tspan
         x="1523.8145"
         y="348.41068"
         id="tspan3847">WC</tspan></text><text
       xml:space="preserve"
       transform="scale(0.26458333)"
       id="text3025"
       style="font-size:34.6667px;white-space:pre;shape-inside:url(#rect3027);fill:#000000;fill-opacity:1;stroke:#000000;stroke-width:1.00157;stroke-opacity:0"><tspan
         x="1716.8555"
         y="325.78373"
         id="tspan3849">WC</tspan></text><text
       xml:space="preserve"
       transform="matrix(0.26458333,0,0,0.26458333,9.1673445,13.096206)"
       id="text3031"
       style="font-size:34.6667px;white-space:pre;shape-inside:url(#rect3033);fill:#000000;fill-opacity:1;stroke:#000000;stroke-width:1.00157;stroke-opacity:0"><tspan
         x="1851.2051"
         y="205.5767"
         id="tspan3851">B118</tspan></text><text
       xml:space="preserve"
       transform="matrix(0.26458333,0,0,0.26458333,9.7286105,6.9222806)"
       id="text3037"
       style="font-size:34.6667px;white-space:pre;shape-inside:url(#rect3039);fill:#000000;fill-opacity:1;stroke:#000000;stroke-width:1.00157;stroke-opacity:0"><tspan
         x="1847.6699"
         y="374.57475"
         id="tspan3853">B119</tspan></text><text
       xml:space="preserve"
       transform="matrix(0.26458333,0,0,0.26458333,8.7931672,13.657472)"
       id="text3043"
       style="font-size:34.6667px;white-space:pre;shape-inside:url(#rect3045);fill:#000000;fill-opacity:1;stroke:#000000;stroke-width:1.00157;stroke-opacity:0"><tspan
         x="2031.5176"
         y="205.5767"
         id="tspan3855">B120</tspan></text><text
       xml:space="preserve"
       transform="matrix(0.26458333,0,0,0.26458333,11.786586,8.9802559)"
       id="text3049"
       style="font-size:34.6667px;white-space:pre;shape-inside:url(#rect3051);fill:#000000;fill-opacity:1;stroke:#000000;stroke-width:1.00157;stroke-opacity:0"><tspan
         x="2021.6172"
         y="379.52396"
         id="tspan3857">B121</tspan></text><text
       xml:space="preserve"
       transform="matrix(0.26458333,0,0,0.26458333,16.650891,17.025068)"
       id="text3055"
       style="font-size:34.6667px;white-space:pre;shape-inside:url(#rect3057);fill:#000000;fill-opacity:1;stroke:#000000;stroke-width:1.00157;stroke-opacity:0"><tspan
         x="2303.7539"
         y="226.78959"
         id="tspan3859">B122</tspan></text><text
       xml:space="preserve"
       transform="matrix(0.26458333,0,0,0.26458333,1.3096206,1.4967093)"
       id="text3061"
       style="font-size:34.6667px;white-space:pre;shape-inside:url(#rect3063);fill:#000000;fill-opacity:1;stroke:#000000;stroke-width:1.00157;stroke-opacity:0"><tspan
         x="2251.4277"
         y="389.42435"
         id="tspan3861">B123</tspan></text><text
       xml:space="preserve"
       transform="matrix(0.26458333,0,0,0.26458333,0.18708866,8.0448126)"
       id="text3067"
       style="font-size:34.6667px;white-space:pre;shape-inside:url(#rect3069);fill:#000000;fill-opacity:1;stroke:#000000;stroke-width:1.00157;stroke-opacity:0"><tspan
         x="2228.0938"
         y="540.74467"
         id="tspan3863">B125</tspan></text><text
       xml:space="preserve"
       transform="matrix(0.26458333,0,0,0.26458333,-1.4967093,-0.74835466)"
       id="text3073"
       style="font-size:34.6667px;white-space:pre;shape-inside:url(#rect3075);fill:#000000;fill-opacity:1;stroke:#000000;stroke-width:1.00157;stroke-opacity:0"><tspan
         x="2322.8457"
         y="503.2681"
         id="tspan3865">B124</tspan></text><text
       xml:space="preserve"
       transform="matrix(0.26458333,0,0,0.26458333,-1.683798,0.56126599)"
       id="text3079"
       style="font-size:34.6667px;white-space:pre;shape-inside:url(#rect3081);fill:#000000;fill-opacity:1;stroke:#000000;stroke-width:1.00157;stroke-opacity:0"><tspan
         x="2320.7246"
         y="659.53764"
         id="tspan3867">B127</tspan></text><text
       xml:space="preserve"
       transform="scale(0.26458333)"
       id="text3085"
       style="font-size:34.6667px;white-space:pre;shape-inside:url(#rect3087);fill:#000000;fill-opacity:1;stroke:#000000;stroke-width:1.00157;stroke-opacity:0"><tspan
         x="2477.7031"
         y="570.44193"
         id="tspan3869">B126</tspan></text><text
       xml:space="preserve"
       transform="matrix(0.26458333,0,0,0.26458333,28.624566,12.160763)"
       id="text3091"
       style="font-size:34.6667px;white-space:pre;shape-inside:url(#rect3093);fill:#000000;fill-opacity:1;stroke:#000000;stroke-width:1.00157;stroke-opacity:0"><tspan
         x="2218.9004"
         y="758.53373"
         id="tspan3871">B128</tspan></text><text
       xml:space="preserve"
       transform="matrix(0.26458333,0,0,0.26458333,16.650891,1.683798)"
       id="text3097"
       style="font-size:34.6667px;white-space:pre;shape-inside:url(#rect3099);fill:#000000;fill-opacity:1;stroke:#000000;stroke-width:1.00157;stroke-opacity:0"><tspan
         x="2269.8125"
         y="914.80326"
         id="tspan3873">B129</tspan></text><text
       xml:space="preserve"
       transform="scale(0.26458333)"
       id="text3103"
       style="fill:#000000;stroke:#000000;stroke-width:1.0015748;fill-opacity:1;stroke-opacity:0;font-size:34.66666667px;white-space:pre;shape-inside:url(#rect3105)" /><text
       xml:space="preserve"
       transform="matrix(0.26458333,0,0,0.26458333,46.772166,1.683798)"
       id="text3109"
       style="font-size:34.6667px;white-space:pre;shape-inside:url(#rect3111);fill:#000000;fill-opacity:1;stroke:#000000;stroke-width:1.00157;stroke-opacity:0"><tspan
         x="1958.6855"
         y="1407.6568"
         id="tspan3875">B131</tspan></text><text
       xml:space="preserve"
       transform="matrix(0.26458333,0,0,0.26458333,4.3030393,21.702285)"
       id="text3115"
       style="font-size:34.6667px;white-space:pre;shape-inside:url(#rect3117);fill:#000000;fill-opacity:1;stroke:#000000;stroke-width:1.00157;stroke-opacity:0"><tspan
         x="2551.2422"
         y="2150.1197"
         id="tspan3877">B130</tspan></text><text
       xml:space="preserve"
       transform="matrix(0.26458333,0,0,0.26458333,-0.56126599,2.0579753)"
       id="text3121"
       style="font-size:34.6667px;white-space:pre;shape-inside:url(#rect3123);fill:#000000;fill-opacity:1;stroke:#000000;stroke-width:1.00157;stroke-opacity:0"><tspan
         x="1697.0566"
         y="706.20756"
         id="tspan3879">B134</tspan></text><text
       xml:space="preserve"
       transform="matrix(0.26458333,0,0,0.26458333,1.122532,2.6192413)"
       id="text3127"
       style="font-size:34.6667px;white-space:pre;shape-inside:url(#rect3129);fill:#000000;fill-opacity:1;stroke:#000000;stroke-width:1.00157;stroke-opacity:0"><tspan
         x="1501.8945"
         y="708.32865"
         id="tspan3881">B135</tspan></text><text
       xml:space="preserve"
       transform="matrix(0.26458333,0,0,0.26458333,15.528359,5.2384826)"
       id="text3133"
       style="font-size:34.6667px;white-space:pre;shape-inside:url(#rect3135);fill:#000000;fill-opacity:1;stroke:#000000;stroke-width:1.00157;stroke-opacity:0"><tspan
         x="902.26758"
         y="684.28764"
         id="tspan3883">B136</tspan></text><text
       xml:space="preserve"
       transform="matrix(0.26458333,0,0,0.26458333,-0.37417733,0)"
       id="text3139"
       style="font-size:34.6667px;white-space:pre;shape-inside:url(#rect3141);fill:#000000;fill-opacity:1;stroke:#000000;stroke-width:1.00157;stroke-opacity:0"><tspan
         x="421.43555"
         y="713.9849"
         id="tspan3885">B137</tspan></text><text
       xml:space="preserve"
       transform="matrix(0.26458333,0,0,0.26458333,1.122532,2.245064)"
       id="text3145"
       style="font-size:17.3333px;white-space:pre;shape-inside:url(#rect3147);fill:#000000;fill-opacity:1;stroke:#000000;stroke-width:1.00157;stroke-opacity:0"><tspan
         x="361.33203"
         y="615.44065"
         id="tspan3887">B138</tspan></text><path
       style="fill:#000000;fill-opacity:0;stroke:#000000;stroke-width:0.264999;stroke-opacity:1"
       d="m 509.38906,184.48072 v 52.05677 h 26.59059 v 19.84375 h -3.24112 V 236.4052 h -3.70417 v 19.97604 h -3.83646 v -19.90989 h -3.77031 v 19.71146 H 487.9578 v -70.18073 h 1.5875 v -1.65365 h 18.45469 v 1.78594 h -19.97604 v 1.45521 h 20.04218 l -0.0331,3.77031 h -20.07526 20.04219 v 3.57188 h -19.97604 20.00911 l -0.0331,3.175 h -20.04216 20.00911 v 3.83645 h -19.81067 19.7776 v 3.70417 h -19.97604 19.97604 v 3.9026 h -19.84375 19.84008 l 0.0351,3.70417 h -19.87516 19.89454 l 0.0117,3.57188 h -20.10467 20.12038 l 0.0234,3.70416 h -20.07761 20.07761 l 0,3.82477 -19.94532,0.0117 19.94532,0 -0.0117,3.57188 -19.99977,0 h 19.99576 l -0.0117,3.83645 H 488.024 508.02343 l -0.0234,3.37344 h -19.64532 19.64532 v 1.37253 h 2.00091"
       id="path3207"
       sodipodi:nodetypes="cccccccccccccccccccccccccccccccccccccccccccccccccccccccccccccc" /><path
       style="fill:#000000;fill-opacity:0;stroke:#000000;stroke-width:0.264999;stroke-opacity:1"
       d="m 508.03307,183.98463 v 52.18906"
       id="path3587"
       sodipodi:nodetypes="cc" /></g></svg>
